<svg xmlns="http://www.w3.org/2000/svg" viewBox="0 0 104.941 23.086" fill="#1d1d1d"><g><path d="M1.7 18.73q.273 0 1.288.137.469.078.742.078 1.66 0 1.915-2.617.136-1.484.136-8.437 0-1.055-.43-1.465-.43-.41-1.562-.41-.273 0-.781.058-.39.04-.684.04-.664 0-1.074-.352-.41-.371-.41-.957 0-.625.625-1.23.625-.626 1.738-1.095Q8.73.137 14.961.137q1.7 0 2.46.41.782.39.782 1.27 0 .507-.254.8-.254.274-1.015.606-1.211.527-1.387 1.289-.176.761-.274 5.937.157 5.235.176 5.606.02.37.156 1.035.235 1.035.88 1.426.644.39 2.265.468 1.836.078 1.836 1.504 0 1.485-2.598 1.953-3.613.645-7.422.645-2.5 0-4.726-.293-2.793-.39-4.336-.957Q0 21.289 0 20.196q0-.587.488-1.016.489-.43 1.211-.45zM27.998 13.848q1.856 0 3.223 1.289 1.386 1.308 1.386 3.379 0 1.933-1.386 3.261-1.367 1.29-3.223 1.29-1.855 0-3.223-1.29-1.386-1.328-1.386-3.32 0-2.031 1.386-3.32 1.368-1.27 3.223-1.29zM45.566 0q2.676 0 5.157 1.309 3.359 1.757 5.02 5.234 1.23 2.539 1.23 5.41 0 5.234-4.004 8.574-3.067 2.54-6.992 2.54-4.336 0-7.383-2.833-3.614-3.34-3.614-8.925 0-5.45 3.301-8.555Q41.191 0 45.566 0zm-.449 5.82q-1.816 0-1.816 3.086 0 4.043 1.543 7.266.605 1.25 1.62 1.25 1.778 0 1.778-3.145 0-1.757-.39-3.75-.372-2.011-.957-3.261-.645-1.387-1.778-1.446zM69.55 0q2.677 0 5.157 1.309 3.36 1.757 5.02 5.234 1.23 2.539 1.23 5.41 0 5.234-4.004 8.574-3.066 2.54-6.992 2.54-4.336 0-7.383-2.833-3.613-3.34-3.613-8.925 0-5.45 3.3-8.555Q65.176 0 69.552 0zm-.448 5.82q-1.817 0-1.817 3.086 0 4.043 1.543 7.266.606 1.25 1.621 1.25 1.778 0 1.778-3.145 0-1.757-.391-3.75-.371-2.011-.957-3.261-.645-1.387-1.777-1.446zM93.535 0q2.676 0 5.156 1.309 3.36 1.757 5.02 5.234 1.23 2.539 1.23 5.41 0 5.234-4.003 8.574-3.067 2.54-6.993 2.54-4.336 0-7.382-2.833-3.614-3.34-3.614-8.925 0-5.45 3.301-8.555Q89.16 0 93.535 0zm-.45 5.82q-1.815 0-1.815 3.086 0 4.043 1.543 7.266.605 1.25 1.62 1.25 1.778 0 1.778-3.145 0-1.757-.39-3.75-.372-2.011-.958-3.261-.644-1.387-1.777-1.446z"/></g></svg>
