<svg xmlns="http://www.w3.org/2000/svg" viewBox="0 0 53.438 7.369" fill="#1d1d1d"><g><path d="M3.896.031q.755 0 1.458.33.33.156.46.156.093 0 .3-.047.066-.015.15-.015.268 0 .47.248.496.6.496 1.488 0 .625-.43.915-.232.155-.521.155-.264 0-.43-.114-.165-.114-.32-.403-.222-.408-.361-.584-.14-.18-.341-.326-.502-.35-1.05-.35-.532 0-.847.387-.31.382-.31 1.028 0 .889.45 1.628.61.987 1.746.987.419 0 .827-.14.413-.14.64-.361.197-.186.321-.186.181 0 .31.17.13.165.13.403 0 .3-.181.672-.181.372-.434.584-.109.088-.45.155-.196.036-.522.191-.765.367-1.592.367-.863 0-1.72-.388-.998-.45-1.577-1.38Q0 4.698 0 3.712q0-1.148.713-2.094.62-.821 1.618-1.255Q3.09.03 3.896.03zM11.594.031q1.328 0 2.32.76.672.522 1.09 1.354.408.826.408 1.653 0 1.22-.806 2.18-.682.817-1.783 1.174-.676.217-1.359.217-.894 0-1.71-.372-.987-.45-1.545-1.36-.543-.878-.543-1.937 0-1.23.698-2.17.62-.838 1.669-1.23.703-.269 1.56-.269zm-.491 1.483q-.434 0-.688.388-.196.29-.196.687 0 .584.238 1.354.237.765.6 1.359.16.253.392.403.238.15.48.15.393 0 .63-.295.244-.294.244-.775 0-.625-.202-1.349-.201-.723-.522-1.235-.196-.315-.454-.496-.259-.18-.522-.19zM18.004.176h2.723q.44-.016.801-.12.155-.04.274-.04.419 0 .812.62.397.62.397 1.276 0 .45-.273.656-.207.155-.497.155-.273 0-.475-.15-.201-.155-.398-.506-.17-.32-.269-.419-.098-.098-.237-.098-.191 0-.274.16-.083.16-.083.528V5.13q0 .445.093.646.093.202.352.31.279.12.377.228.103.103.103.29 0 .371-.506.552-.502.181-1.545.181-1.282 0-1.902-.212-.522-.176-.522-.568 0-.212.186-.331.047-.026.367-.124.196-.057.269-.217.077-.16.124-.615.041-.403.077-1.302.036-.905.036-1.566 0-.465-.072-.662-.072-.196-.238-.196-.201 0-.392.29-.347.527-.569.697-.263.202-.511.202-.28 0-.46-.207-.181-.212-.181-.537 0-.32.144-.703.145-.388.388-.713.393-.528.775-.528.103 0 .238.032.279.056.455.077.18.02.413.02zM29.344 3.659l.977 2.093q.14.289.233.382.093.088.284.119.372.057.372.377 0 .377-.455.543-.455.165-1.488.165-1.168 0-1.731-.098-.259-.047-.414-.186-.15-.145-.15-.346 0-.155.078-.238.083-.088.3-.16.243-.083.243-.28 0-.346-.419-.408-.45-.062-1.266-.062-.687 0-.822.083-.082.052-.144.186-.062.134-.062.258 0 .114.04.15.047.031.29.109.315.093.315.372 0 .615-1.472.615-.837 0-1.23-.114-.362-.108-.362-.475 0-.16.078-.248.082-.088.289-.16.336-.12.506-.331.176-.217.497-.92l.728-1.597q.403-.878.538-1.312.14-.44.144-.858.005-.445.052-.615.052-.176.222-.341.357-.362.91-.362.522 0 .997.408.661.558 1.922 3.25zm-3.596.65h1.013q.279 0 .279-.123 0-.17-.388-.837-.176-.305-.269-.409-.093-.103-.196-.103-.186 0-.31.346l-.15.367q-.217.527-.217.63 0 .13.238.13zM34.912.031q.755 0 1.458.33.33.156.46.156.093 0 .3-.047.067-.015.15-.015.268 0 .47.248.496.6.496 1.488 0 .625-.43.915-.232.155-.521.155-.264 0-.43-.114-.165-.114-.32-.403-.222-.408-.361-.584-.14-.18-.341-.326-.502-.35-1.05-.35-.532 0-.847.387-.31.382-.31 1.028 0 .889.45 1.628.61.987 1.746.987.419 0 .827-.14.414-.14.64-.361.197-.186.321-.186.181 0 .31.17.13.165.13.403 0 .3-.181.672-.181.372-.434.584-.109.088-.45.155-.196.036-.522.191-.765.367-1.592.367-.863 0-1.72-.388-.998-.45-1.576-1.38-.569-.904-.569-1.89 0-1.148.713-2.094.62-.821 1.618-1.255.76-.331 1.565-.331zM42.6.031q1.327 0 2.32.76.671.522 1.09 1.354.408.826.408 1.653 0 1.22-.806 2.18-.682.817-1.783 1.174-.677.217-1.359.217-.894 0-1.71-.372-.987-.45-1.545-1.36-.543-.878-.543-1.937 0-1.23.698-2.17.62-.838 1.669-1.23.703-.269 1.56-.269zm-.492 1.483q-.434 0-.687.388-.196.29-.196.687 0 .584.237 1.354.238.765.6 1.359.16.253.393.403.237.15.48.15.393 0 .63-.295.244-.294.244-.775 0-.625-.202-1.349-.202-.723-.522-1.235-.196-.315-.455-.496-.258-.18-.522-.19zM50.203 2.434v2.372q0 .8.14 1.033.17.274.718.274.59 0 .93-.258.342-.258.476-.806.077-.336.351-.336.274 0 .445.248.175.243.175.636 0 .64-.475 1.369-.15.232-.264.315-.113.088-.273.088l-1.148-.14h-3.612q-.356 0-.501-.082-.212-.119-.212-.357 0-.144.067-.212.073-.072.341-.201.295-.14.378-.393.067-.212.067-1.235 0-.475-.026-1.37-.026-.857-.031-1.291 0-.414-.067-.564-.062-.155-.269-.222-.341-.119-.434-.19-.165-.13-.165-.295 0-.378.625-.574.532-.17 1.426-.17 1.003 0 1.499.103.64.14.64.558 0 .17-.087.253-.083.083-.414.222-.196.088-.248.3-.052.212-.052.925z"/></g></svg>
